<?xml version="1.0" encoding="utf-8"?>
<!-- Generator: Adobe Illustrator 21.0.2, SVG Export Plug-In . SVG Version: 6.00 Build 0)  -->
<svg version="1.1" id="Layer_1" xmlns="http://www.w3.org/2000/svg" xmlns:xlink="http://www.w3.org/1999/xlink" x="0px" y="0px"
	 viewBox="0 0 161 161" style="enable-background:new 0 0 161 161;" xml:space="preserve">
<style type="text/css">
	#base{fill:none;}
	.st0{fill:#EA0600;}
	.st1{fill:#180C8A;}
	.st2{fill:#FFA40D;}
	.st3{fill:#07A42E;}
	.st4{fill:#FFF144;}
	.st5{fill:none;stroke:#000000;stroke-width:1.5;stroke-miterlimit:10;}
</style>
<path id="base" d="M7.4,0h146.2c4.1,0,7.4,3.3,7.4,7.4v146.2c0,4.1-3.3,7.4-7.4,7.4H7.4c-4.1,0-7.4-3.3-7.4-7.4V7.4
	C0,3.3,3.3,0,7.4,0z"/>
<path id="t1" class="st0" d="M12.3,0h38.4C52,0,53,1,53,2.3v1.4C53,5,52,6,50.7,6H12.3C11,6,10,5,10,3.7V2.3C10,1,11,0,12.3,0z"/>
<path id="t2" class="st1" d="M61.3,0h38.4c1.3,0,2.3,1,2.3,2.3v1.4C102,5,101,6,99.7,6H61.3C60,6,59,5,59,3.7V2.3C59,1,60,0,61.3,0z
	"/>
<path id="t3" class="st2" d="M110.3,0h38.4c1.3,0,2.3,1,2.3,2.3v1.4c0,1.3-1,2.3-2.3,2.3h-38.4C109,6,108,5,108,3.7V2.3
	C108,1,109,0,110.3,0z"/>
<path id="l1" class="st3" d="M2.3,10h1.4C5,10,6,11,6,12.3v38.4C6,52,5,53,3.7,53H2.3C1,53,0,52,0,50.7V12.3C0,11,1,10,2.3,10z"/>
<path id="c1" class="st4" d="M16.2,10h30.6c3.4,0,6.2,2.8,6.2,6.2v30.6c0,3.4-2.8,6.2-6.2,6.2H16.2c-3.4,0-6.2-2.8-6.2-6.2V16.2
	C10,12.8,12.8,10,16.2,10z"/>
<path id="c2" class="st4" d="M65.2,10h30.6c3.4,0,6.2,2.8,6.2,6.2v30.6c0,3.4-2.8,6.2-6.2,6.2H65.2c-3.4,0-6.2-2.8-6.2-6.2V16.2
	C59,12.8,61.8,10,65.2,10z"/>
<path id="c3" class="st4" d="M114.2,10h30.6c3.4,0,6.2,2.8,6.2,6.2v30.6c0,3.4-2.8,6.2-6.2,6.2h-30.6c-3.4,0-6.2-2.8-6.2-6.2V16.2
	C108,12.8,110.8,10,114.2,10z"/>
<path id="r1" class="st3" d="M157.3,10h1.4c1.3,0,2.3,1,2.3,2.3v38.4c0,1.3-1,2.3-2.3,2.3h-1.4c-1.3,0-2.3-1-2.3-2.3V12.3
	C155,11,156,10,157.3,10z"/>
<path id="l2" class="st0" d="M2.3,59h1.4C5,59,6,60,6,61.3v38.4c0,1.3-1,2.3-2.3,2.3H2.3C1,102,0,101,0,99.7V61.3C0,60,1,59,2.3,59z
	"/>
<path id="c4" class="st4" d="M16.2,59h30.6c3.4,0,6.2,2.8,6.2,6.2v30.6c0,3.4-2.8,6.2-6.2,6.2H16.2c-3.4,0-6.2-2.8-6.2-6.2V65.2
	C10,61.8,12.8,59,16.2,59z"/>
<path id="c5" class="st4" d="M65.2,59h30.6c3.4,0,6.2,2.8,6.2,6.2v30.6c0,3.4-2.8,6.2-6.2,6.2H65.2c-3.4,0-6.2-2.8-6.2-6.2V65.2
	C59,61.8,61.8,59,65.2,59z"/>
<path id="c6" class="st4" d="M114.2,59h30.6c3.4,0,6.2,2.8,6.2,6.2v30.6c0,3.4-2.8,6.2-6.2,6.2h-30.6c-3.4,0-6.2-2.8-6.2-6.2V65.2
	C108,61.8,110.8,59,114.2,59z"/>
<path id="r2" class="st2" d="M157.3,59h1.4c1.3,0,2.3,1,2.3,2.3v38.4c0,1.3-1,2.3-2.3,2.3h-1.4c-1.3,0-2.3-1-2.3-2.3V61.3
	C155,60,156,59,157.3,59z"/>
<path id="l3" class="st1" d="M2.3,108h1.4c1.3,0,2.3,1,2.3,2.3v38.4c0,1.3-1,2.3-2.3,2.3H2.3C1,151,0,150,0,148.7v-38.4
	C0,109,1,108,2.3,108z"/>
<path id="c7" class="st4" d="M16.2,108h30.6c3.4,0,6.2,2.8,6.2,6.2v30.6c0,3.4-2.8,6.2-6.2,6.2H16.2c-3.4,0-6.2-2.8-6.2-6.2v-30.6
	C10,110.8,12.8,108,16.2,108z"/>
<path id="c8" class="st4" d="M65.2,108h30.6c3.4,0,6.2,2.8,6.2,6.2v30.6c0,3.4-2.8,6.2-6.2,6.2H65.2c-3.4,0-6.2-2.8-6.2-6.2v-30.6
	C59,110.8,61.8,108,65.2,108z"/>
<path id="c9" class="st4" d="M114.2,108h30.6c3.4,0,6.2,2.8,6.2,6.2v30.6c0,3.4-2.8,6.2-6.2,6.2h-30.6c-3.4,0-6.2-2.8-6.2-6.2v-30.6
	C108,110.8,110.8,108,114.2,108z"/>
<path id="r3" class="st1" d="M157.3,108h1.4c1.3,0,2.3,1,2.3,2.3v38.4c0,1.3-1,2.3-2.3,2.3h-1.4c-1.3,0-2.3-1-2.3-2.3v-38.4
	C155,109,156,108,157.3,108z"/>
<path id="b1" class="st0" d="M12.3,155h38.4c1.3,0,2.3,1,2.3,2.3v1.4c0,1.3-1,2.3-2.3,2.3H12.3c-1.3,0-2.3-1-2.3-2.3v-1.4
	C10,156,11,155,12.3,155z"/>
<path id="b2" class="st3" d="M61.3,155h38.4c1.3,0,2.3,1,2.3,2.3v1.4c0,1.3-1,2.3-2.3,2.3H61.3c-1.3,0-2.3-1-2.3-2.3v-1.4
	C59,156,60,155,61.3,155z"/>
<path id="b3" class="st2" d="M110.3,155h38.4c1.3,0,2.3,1,2.3,2.3v1.4c0,1.3-1,2.3-2.3,2.3h-38.4c-1.3,0-2.3-1-2.3-2.3v-1.4
	C108,156,109,155,110.3,155z"/>
<g>
	<g>
		<line class="st5" x1="31.5" y1="39.9" x2="31.5" y2="118.7"/>
		<g>
			<polygon points="24,42.1 31.5,29.2 39,42.1 			"/>
		</g>
		<g>
			<polygon points="24,116.5 31.5,129.5 39,116.5 			"/>
		</g>
	</g>
</g>
<g>
	<g>
		<line class="st5" x1="129.5" y1="39.9" x2="129.5" y2="118.7"/>
		<g>
			<polygon points="122,42.1 129.5,29.2 137,42.1 			"/>
		</g>
		<g>
			<polygon points="122,116.5 129.5,129.5 137,116.5 			"/>
		</g>
	</g>
</g>
</svg>
